<?xml version="1.0" encoding="UTF-8"?>
<svg xmlns="http://www.w3.org/2000/svg" xmlns:xlink="http://www.w3.org/1999/xlink" width="20px" height="20px" viewBox="0 0 20 20" version="1.1">
<g id="surface1">
<path style=" stroke:none;fill-rule:nonzero;fill:rgb(0%,0%,0%);fill-opacity:1;" d="M 10 11.390625 C 9.90625 11.390625 9.8125 11.386719 9.722656 11.375 C 9.773438 11.382812 9.828125 11.386719 9.878906 11.394531 C 9.703125 11.371094 9.539062 11.320312 9.375 11.257812 C 9.421875 11.277344 9.46875 11.296875 9.515625 11.316406 C 9.40625 11.265625 9.296875 11.210938 9.199219 11.144531 C 9.171875 11.125 9.140625 11.105469 9.117188 11.085938 C 9.03125 11.027344 9.226562 11.179688 9.15625 11.117188 C 9.105469 11.074219 9.058594 11.03125 9.015625 10.984375 C 8.96875 10.945312 8.933594 10.898438 8.890625 10.855469 C 8.8125 10.761719 8.972656 10.96875 8.914062 10.882812 C 8.898438 10.859375 8.878906 10.835938 8.863281 10.8125 C 8.792969 10.710938 8.734375 10.597656 8.6875 10.484375 C 8.703125 10.53125 8.726562 10.578125 8.742188 10.625 C 8.675781 10.464844 8.628906 10.296875 8.605469 10.125 C 8.613281 10.175781 8.617188 10.226562 8.625 10.28125 C 8.601562 10.097656 8.601562 9.917969 8.625 9.738281 C 8.617188 9.789062 8.613281 9.84375 8.605469 9.894531 C 8.632812 9.71875 8.679688 9.554688 8.742188 9.390625 C 8.726562 9.4375 8.703125 9.484375 8.6875 9.53125 C 8.734375 9.421875 8.789062 9.3125 8.855469 9.214844 C 8.875 9.1875 8.894531 9.15625 8.914062 9.128906 C 8.972656 9.046875 8.820312 9.242188 8.882812 9.167969 C 8.925781 9.121094 8.96875 9.074219 9.015625 9.03125 C 9.054688 8.984375 9.101562 8.949219 9.144531 8.90625 C 9.234375 8.828125 9.03125 8.988281 9.117188 8.929688 C 9.140625 8.914062 9.164062 8.894531 9.1875 8.878906 C 9.289062 8.808594 9.398438 8.75 9.515625 8.699219 C 9.46875 8.71875 9.421875 8.738281 9.375 8.757812 C 9.535156 8.691406 9.703125 8.644531 9.875 8.621094 C 9.824219 8.628906 9.773438 8.632812 9.71875 8.640625 C 9.902344 8.617188 10.085938 8.617188 10.265625 8.640625 C 10.214844 8.632812 10.164062 8.628906 10.109375 8.621094 C 10.273438 8.644531 10.4375 8.6875 10.589844 8.75 C 10.542969 8.730469 10.496094 8.710938 10.449219 8.691406 C 10.570312 8.742188 10.679688 8.800781 10.789062 8.875 C 10.8125 8.886719 10.828125 8.902344 10.851562 8.917969 C 10.929688 8.972656 10.726562 8.8125 10.835938 8.902344 C 10.878906 8.941406 10.925781 8.980469 10.96875 9.023438 C 11.007812 9.0625 11.046875 9.109375 11.085938 9.152344 C 11.179688 9.265625 11.019531 9.054688 11.074219 9.132812 C 11.089844 9.15625 11.101562 9.175781 11.117188 9.195312 C 11.191406 9.300781 11.25 9.414062 11.300781 9.535156 C 11.28125 9.488281 11.261719 9.441406 11.242188 9.394531 C 11.3125 9.554688 11.355469 9.722656 11.382812 9.898438 C 11.375 9.84375 11.367188 9.792969 11.359375 9.742188 C 11.382812 9.921875 11.382812 10.101562 11.359375 10.28125 C 11.367188 10.226562 11.375 10.179688 11.382812 10.125 C 11.359375 10.296875 11.3125 10.46875 11.242188 10.628906 C 11.261719 10.582031 11.28125 10.535156 11.300781 10.488281 C 11.25 10.605469 11.191406 10.71875 11.117188 10.824219 C 11.105469 10.847656 11.089844 10.867188 11.074219 10.886719 C 11.015625 10.964844 11.179688 10.761719 11.085938 10.867188 C 11.046875 10.914062 11.007812 10.957031 10.96875 11 C 10.921875 11.039062 10.882812 11.082031 10.835938 11.117188 C 10.726562 11.210938 10.929688 11.050781 10.851562 11.105469 C 10.828125 11.117188 10.8125 11.132812 10.789062 11.148438 C 10.679688 11.21875 10.570312 11.28125 10.449219 11.328125 C 10.496094 11.308594 10.542969 11.289062 10.589844 11.269531 C 10.4375 11.335938 10.273438 11.375 10.109375 11.402344 C 10.164062 11.394531 10.214844 11.386719 10.265625 11.378906 C 10.179688 11.382812 10.089844 11.390625 10 11.390625 C 9.695312 11.394531 9.398438 11.660156 9.414062 11.976562 C 9.429688 12.292969 9.671875 12.566406 10 12.5625 C 10.515625 12.558594 11.046875 12.402344 11.46875 12.09375 C 11.914062 11.765625 12.242188 11.335938 12.421875 10.8125 C 12.765625 9.839844 12.429688 8.671875 11.628906 8.03125 C 11.1875 7.679688 10.675781 7.476562 10.109375 7.445312 C 9.613281 7.414062 9.09375 7.550781 8.671875 7.808594 C 8.246094 8.066406 7.882812 8.453125 7.679688 8.90625 C 7.441406 9.433594 7.375 9.992188 7.492188 10.5625 C 7.734375 11.71875 8.828125 12.5625 10 12.5625 C 10.304688 12.5625 10.601562 12.292969 10.585938 11.976562 C 10.570312 11.65625 10.328125 11.390625 10 11.390625 Z M 10 11.390625 "/>
<path style=" stroke:none;fill-rule:nonzero;fill:rgb(0%,0%,0%);fill-opacity:1;" d="M 10 2.507812 C 8.46875 2.515625 6.9375 2.984375 5.6875 3.875 C 4.433594 4.773438 3.484375 6.015625 2.953125 7.464844 C 2.417969 8.921875 2.367188 10.5625 2.792969 12.050781 C 3.203125 13.484375 4.050781 14.804688 5.203125 15.75 C 6.414062 16.75 7.882812 17.347656 9.453125 17.46875 C 10.984375 17.589844 12.554688 17.210938 13.867188 16.414062 C 15.136719 15.640625 16.1875 14.484375 16.796875 13.132812 C 17.132812 12.390625 17.34375 11.621094 17.4375 10.8125 C 17.53125 10.035156 17.484375 9.242188 17.328125 8.472656 C 17.03125 7 16.257812 5.621094 15.171875 4.585938 C 14.089844 3.550781 12.6875 2.835938 11.203125 2.609375 C 10.808594 2.546875 10.40625 2.511719 10 2.507812 C 9.695312 2.507812 9.398438 2.78125 9.414062 3.09375 C 9.429688 3.414062 9.671875 3.679688 10 3.679688 C 10.308594 3.679688 10.617188 3.703125 10.921875 3.742188 C 10.867188 3.734375 10.820312 3.726562 10.765625 3.71875 C 11.375 3.804688 11.972656 3.964844 12.539062 4.203125 C 12.492188 4.1875 12.445312 4.164062 12.398438 4.148438 C 12.714844 4.28125 13.019531 4.4375 13.3125 4.617188 C 13.460938 4.710938 13.601562 4.804688 13.738281 4.90625 C 13.773438 4.929688 13.804688 4.953125 13.839844 4.980469 C 13.855469 4.992188 13.867188 5 13.882812 5.011719 C 13.964844 5.074219 13.761719 4.917969 13.84375 4.984375 C 13.914062 5.035156 13.976562 5.089844 14.042969 5.144531 C 14.304688 5.367188 14.546875 5.605469 14.773438 5.859375 C 14.824219 5.921875 14.875 5.984375 14.929688 6.046875 C 14.953125 6.074219 14.976562 6.105469 15 6.136719 C 15.027344 6.167969 15.085938 6.253906 14.96875 6.097656 C 14.984375 6.117188 15 6.140625 15.015625 6.160156 C 15.117188 6.296875 15.21875 6.4375 15.3125 6.582031 C 15.519531 6.90625 15.699219 7.25 15.851562 7.605469 C 15.832031 7.558594 15.8125 7.511719 15.792969 7.464844 C 16.03125 8.03125 16.195312 8.628906 16.277344 9.238281 C 16.269531 9.183594 16.265625 9.132812 16.257812 9.082031 C 16.335938 9.691406 16.335938 10.3125 16.257812 10.921875 C 16.265625 10.871094 16.269531 10.820312 16.277344 10.765625 C 16.195312 11.375 16.03125 11.972656 15.792969 12.539062 C 15.8125 12.492188 15.832031 12.445312 15.851562 12.398438 C 15.71875 12.714844 15.558594 13.019531 15.378906 13.3125 C 15.289062 13.460938 15.195312 13.601562 15.09375 13.738281 C 15.070312 13.773438 15.042969 13.808594 15.015625 13.84375 C 15.007812 13.855469 14.996094 13.867188 14.984375 13.882812 C 14.921875 13.96875 15.078125 13.765625 15.015625 13.847656 C 14.960938 13.914062 14.90625 13.976562 14.851562 14.042969 C 14.632812 14.304688 14.394531 14.546875 14.140625 14.773438 C 14.078125 14.824219 14.015625 14.875 13.953125 14.929688 C 13.921875 14.953125 13.894531 14.976562 13.863281 15 C 13.828125 15.027344 13.746094 15.089844 13.898438 14.972656 C 13.878906 14.988281 13.859375 15.003906 13.839844 15.019531 C 13.703125 15.121094 13.5625 15.21875 13.417969 15.3125 C 13.089844 15.519531 12.746094 15.699219 12.390625 15.851562 C 12.4375 15.832031 12.484375 15.8125 12.53125 15.792969 C 11.964844 16.03125 11.371094 16.195312 10.761719 16.277344 C 10.8125 16.269531 10.863281 16.265625 10.917969 16.257812 C 10.304688 16.335938 9.6875 16.335938 9.074219 16.257812 C 9.128906 16.265625 9.179688 16.269531 9.230469 16.277344 C 8.621094 16.195312 8.027344 16.03125 7.460938 15.792969 C 7.507812 15.8125 7.554688 15.832031 7.601562 15.851562 C 7.285156 15.71875 6.976562 15.558594 6.683594 15.378906 C 6.539062 15.289062 6.398438 15.195312 6.257812 15.09375 C 6.222656 15.070312 6.191406 15.042969 6.15625 15.019531 C 6.140625 15.007812 6.128906 14.996094 6.113281 14.988281 C 6.03125 14.921875 6.234375 15.078125 6.152344 15.015625 C 6.085938 14.960938 6.019531 14.910156 5.953125 14.855469 C 5.695312 14.632812 5.449219 14.394531 5.226562 14.140625 C 5.171875 14.078125 5.121094 14.015625 5.070312 13.953125 C 5.046875 13.925781 5.019531 13.894531 4.996094 13.863281 C 4.96875 13.828125 4.910156 13.746094 5.027344 13.898438 C 5.011719 13.882812 4.996094 13.859375 4.980469 13.839844 C 4.878906 13.703125 4.78125 13.5625 4.6875 13.417969 C 4.476562 13.09375 4.296875 12.75 4.144531 12.390625 C 4.164062 12.4375 4.183594 12.484375 4.203125 12.53125 C 3.964844 11.96875 3.800781 11.371094 3.71875 10.761719 C 3.726562 10.8125 3.734375 10.867188 3.742188 10.917969 C 3.660156 10.304688 3.660156 9.6875 3.742188 9.078125 C 3.734375 9.128906 3.726562 9.179688 3.71875 9.234375 C 3.800781 8.625 3.964844 8.027344 4.203125 7.460938 C 4.183594 7.507812 4.164062 7.554688 4.144531 7.601562 C 4.28125 7.285156 4.4375 6.976562 4.617188 6.6875 C 4.707031 6.539062 4.800781 6.398438 4.902344 6.257812 C 4.929688 6.226562 4.953125 6.191406 4.980469 6.15625 C 4.988281 6.140625 5 6.128906 5.011719 6.113281 C 5.074219 6.03125 4.917969 6.234375 4.980469 6.152344 C 5.035156 6.085938 5.089844 6.019531 5.144531 5.953125 C 5.363281 5.695312 5.601562 5.449219 5.859375 5.226562 C 5.917969 5.171875 5.980469 5.121094 6.042969 5.070312 C 6.074219 5.046875 6.101562 5.019531 6.132812 4.996094 C 6.167969 4.96875 6.25 4.910156 6.097656 5.027344 C 6.117188 5.011719 6.136719 4.996094 6.15625 4.980469 C 6.292969 4.878906 6.433594 4.78125 6.578125 4.6875 C 6.90625 4.476562 7.25 4.296875 7.605469 4.144531 C 7.558594 4.164062 7.511719 4.183594 7.464844 4.203125 C 8.03125 3.964844 8.625 3.800781 9.234375 3.71875 C 9.183594 3.726562 9.132812 3.734375 9.078125 3.742188 C 9.382812 3.699219 9.691406 3.679688 10 3.679688 C 10.308594 3.679688 10.601562 3.410156 10.585938 3.09375 C 10.570312 2.78125 10.328125 2.507812 10 2.507812 Z M 10 2.507812 "/>
<path style=" stroke:none;fill-rule:nonzero;fill:rgb(0%,0%,0%);fill-opacity:1;" d="M 10.585938 18.929688 C 10.585938 18.335938 10.585938 17.75 10.585938 17.15625 C 10.585938 17.074219 10.585938 16.992188 10.585938 16.90625 C 10.585938 16.597656 10.316406 16.304688 10 16.320312 C 9.679688 16.332031 9.414062 16.578125 9.414062 16.90625 C 9.414062 17.492188 9.414062 18.085938 9.414062 18.671875 C 9.414062 18.757812 9.414062 18.84375 9.414062 18.929688 C 9.414062 19.234375 9.683594 19.527344 10 19.515625 C 10.320312 19.5 10.585938 19.257812 10.585938 18.929688 Z M 10.585938 3.09375 C 10.585938 2.507812 10.585938 1.914062 10.585938 1.328125 C 10.585938 1.242188 10.585938 1.15625 10.585938 1.070312 C 10.585938 0.765625 10.316406 0.472656 10 0.488281 C 9.679688 0.5 9.414062 0.746094 9.414062 1.070312 C 9.414062 1.664062 9.414062 2.25 9.414062 2.84375 C 9.414062 2.925781 9.414062 3.007812 9.414062 3.09375 C 9.414062 3.402344 9.683594 3.695312 10 3.679688 C 10.320312 3.667969 10.585938 3.421875 10.585938 3.09375 Z M 18.929688 9.414062 C 18.335938 9.414062 17.75 9.414062 17.15625 9.414062 C 17.074219 9.414062 16.992188 9.414062 16.90625 9.414062 C 16.597656 9.414062 16.304688 9.683594 16.320312 10 C 16.332031 10.320312 16.578125 10.585938 16.90625 10.585938 C 17.492188 10.585938 18.085938 10.585938 18.671875 10.585938 C 18.757812 10.585938 18.84375 10.585938 18.929688 10.585938 C 19.234375 10.585938 19.527344 10.316406 19.515625 10 C 19.5 9.679688 19.257812 9.414062 18.929688 9.414062 Z M 18.929688 9.414062 "/>
<path style=" stroke:none;fill-rule:nonzero;fill:rgb(0%,0%,0%);fill-opacity:1;" d="M 3.09375 9.414062 C 2.507812 9.414062 1.914062 9.414062 1.328125 9.414062 C 1.242188 9.414062 1.15625 9.414062 1.070312 9.414062 C 0.765625 9.414062 0.472656 9.683594 0.488281 10 C 0.5 10.320312 0.746094 10.585938 1.070312 10.585938 C 1.664062 10.585938 2.25 10.585938 2.84375 10.585938 C 2.925781 10.585938 3.007812 10.585938 3.09375 10.585938 C 3.402344 10.585938 3.695312 10.316406 3.679688 10 C 3.667969 9.679688 3.421875 9.414062 3.09375 9.414062 Z M 3.09375 9.414062 "/>
</g>
</svg>
